PathFileType	4	(X/Y/Z)	F:\MotionCapture\20160217\3\Generated_files\EMG_Fprce_test04-Dynamic.trc
DataRate	CameraRate	NumFrames	NumMarkers	Units	OrigDataRate	OrigDataStartFrame	OrigNumFrames
120.00	120.00	       7	39	mm	120.00	284	       566
Frame#	Time	Top.Head			Front.Head			Rear.Head			R.Shoulder			R.Offset			R.Elbow			R.Wrist			L.Shoulder			L.Elbow			L.Wrist			R.ASIS			L.ASIS			V.Sacral			R.Thigh			R.Knee			R.Shank			R.Ankle			R.Heel			R.Toe			L.Thigh			L.Knee			L.Shank			L.Ankle			L.Heel			L.Toe			R1			R2			R3			R4			R5			R6			R7			L1			L2			L3			L4			L5			L6			L7			V_Mid_ASIS			V_Pelvis_Origin			V_R.Hip_JC			V_L.Hip_JC			V_R.Knee_JC			V_L.Knee_JC			V_R.Ankle_JC			V_L.Ankle_JC			V_Mid_Hip			V_Mid_Shoulder			V_R.Hand			V_L.Hand			V_R.Toe_Offset_Static			V_L.Toe_Offset_Static			V_R.Toe_Offset			V_L.Toe_Offset			
		X1	Y1	Z1	X2	Y2	Z2	X3	Y3	Z3	X4	Y4	Z4	X5	Y5	Z5	X6	Y6	Z6	X7	Y7	Z7	X8	Y8	Z8	X9	Y9	Z9	X10	Y10	Z10	X11	Y11	Z11	X12	Y12	Z12	X13	Y13	Z13	X14	Y14	Z14	X15	Y15	Z15	X16	Y16	Z16	X17	Y17	Z17	X18	Y18	Z18	X19	Y19	Z19	X20	Y20	Z20	X21	Y21	Z21	X22	Y22	Z22	X23	Y23	Z23	X24	Y24	Z24	X25	Y25	Z25	X26	Y26	Z26	X27	Y27	Z27	X28	Y28	Z28	X29	Y29	Z29	X30	Y30	Z30	X31	Y31	Z31	X32	Y32	Z32	X33	Y33	Z33	X34	Y34	Z34	X35	Y35	Z35	X36	Y36	Z36	X37	Y37	Z37	X38	Y38	Z38	X39	Y39	Z39	

284	2.358	-324.84961	142.49696	1718.06836	-447.25122	142.02605	1652.72449	-227.43330	134.30685	1634.15283	-305.00461	333.71811	1409.67480	-187.08266	65.60509	1258.63940	-265.86725	437.96783	1087.44971	-417.26102	436.80350	872.43475	-333.15945	-74.88472	1408.77795	-267.27133	-183.88579	1100.12634	-315.78415	-217.40524	848.60638	-373.33160	281.33264	922.28290	-408.93472	-3.89273	936.45453	-169.88242	102.74548	928.97699	-418.74884	269.65738	543.63153	-328.77280	308.56796	440.62851	-154.82541	219.15761	285.07013	19.87228	266.44717	242.46422	54.52937	188.74121	284.03152	7.80605	263.69452	91.50195	-496.25626	51.79755	639.70197	-449.62866	-4.71633	464.29312	-459.15503	76.99458	325.66324	-401.59744	14.65439	58.81666	-331.98642	67.35532	42.05790	-540.53406	32.29401	38.99979	-14.57840	259.67618	54.37325	-8.70985	230.59097	87.05526	-4.53725	184.82677	177.77838	31.81144	167.15474	238.46132	55.63668	236.39740	260.48480	44.74168	275.19003	189.09903	33.80445	293.03702	123.47733	-582.65765	62.31204	34.01937	-549.89923	72.42464	42.36029	-451.75012	109.27222	46.43285	-369.55966	102.82707	41.74827	-363.92047	30.00638	39.18981	-437.03470	7.04809	31.63322	-501.53983	-2.21152	36.58616																																																	3979.21094	-1644.31934	573.20422	
285	2.367	-336.90848	142.23700	1721.01782	-459.49524	141.83080	1655.59839	-240.02315	134.09056	1636.49500	-316.66876	333.62448	1412.46924	-199.98769	64.43887	1261.95728	-275.41959	436.96063	1090.30737	-421.66455	437.04706	871.78693	-347.08527	-74.60001	1411.94495	-285.85287	-183.93903	1101.98193	-341.04971	-214.18732	851.04987	-385.50977	280.89975	925.79987	-419.79681	-4.31504	939.06592	-182.77039	102.75427	932.50024	-440.72440	269.23267	549.64349	-352.82944	308.62009	444.62582	-182.07132	218.56433	288.29880	-7.13354	265.16193	243.30896	30.24465	187.56804	282.05148	-25.70010	262.34805	92.42638	-502.39813	52.07914	638.86212	-453.12943	-5.29254	463.92221	-461.48798	76.31121	325.64651	-401.52899	14.66101	58.82918	-331.99484	67.33651	42.11562	-540.52954	32.20652	38.86441	-49.96081	258.23615	55.23471	-43.16863	229.94940	88.86625	-33.66986	184.08713	178.32193	5.65882	166.71855	237.33301	29.69695	235.46519	259.26678	15.49575	274.70029	188.43488	0.38599	293.23730	124.27251	-582.58484	62.24530	33.90978	-549.85864	72.41842	42.31529	-451.71719	109.15092	46.50825	-369.57101	102.61885	41.92847	-363.80563	29.96369	39.22340	-437.03436	6.97643	31.63882	-501.45209	-2.43856	36.49326																																																	3977.95020	-1649.57983	578.00964	
286	2.375	-349.15872	141.91862	1723.31445	-471.74609	141.95441	1658.27869	-252.34370	134.34230	1638.81519	-328.01593	333.52802	1415.05420	-212.79720	62.99020	1265.34106	-284.46826	436.37134	1093.41394	-425.85663	436.90271	871.11932	-360.79974	-74.38827	1414.80627	-305.26620	-184.19475	1103.31726	-367.31006	-211.62025	853.78540	-397.45782	280.10062	929.27692	-432.28134	-5.14786	941.17358	-193.67572	102.95129	935.95764	-461.67343	269.14453	555.27789	-377.41888	308.74686	448.93927	-208.13934	217.73039	289.57727	-34.61549	264.33618	241.43539	5.07012	186.65591	278.78043	-60.98614	261.97403	93.24139	-508.43213	51.96589	637.69849	-455.64249	-5.59994	463.76230	-463.92276	76.40617	324.50293	-401.35153	14.48840	58.83469	-332.01181	67.27499	42.22468	-540.63416	32.16068	38.73978	-87.38264	257.62686	56.65528	-76.88073	228.33679	89.53450	-62.99739	183.05475	178.32475	-21.60439	165.52567	235.85982	2.86542	234.68056	256.10437	-13.51285	274.19839	186.10516	-32.41495	293.00922	123.35076	-582.50043	62.20993	33.75268	-549.83154	72.34348	42.21527	-451.73438	109.05380	46.46920	-369.56577	102.43649	42.06640	-363.76315	29.91602	39.23174	-437.03168	6.88432	31.56673	-501.38129	-2.57802	36.41163	
287	2.383	-361.58438	142.07704	1725.80994	-483.96695	141.67465	1660.60742	-264.77457	134.04263	1641.33105	-339.47537	333.18478	1417.45374	-225.44153	61.78865	1268.69214	-293.80215	435.74088	1095.99512	-430.33780	437.19824	870.69080	-374.60001	-74.11074	1417.57153	-324.16284	-183.98317	1104.74756	-393.38110	-208.54662	856.68524	-410.38901	279.38675	932.70459	-443.70425	-6.20147	943.40692	-206.37233	103.12600	939.27734	-482.47333	269.05988	561.25238	-400.87714	308.77338	453.37509	-235.90993	217.33018	290.85086	-62.79694	263.74051	238.82986	-20.82168	186.48695	275.16507	-96.45776	260.98163	93.14293	-514.87823	51.64112	636.29474	-457.80548	-5.89961	463.55902	-463.90555	75.38934	325.27893	-401.52005	14.62571	58.79972	-331.97083	67.19602	42.32364	-540.66034	32.16125	38.62532	-123.65304	255.92778	57.02474	-112.19282	227.65572	89.58370	-93.28934	182.25177	177.40421	-49.37992	164.46436	233.36461	-25.07913	234.33711	252.24516	-43.55300	273.49744	182.17952	-65.51915	291.48792	121.15318	-582.42065	62.18224	33.65324	-549.83392	72.36574	42.19419	-451.77924	109.00658	46.42705	-369.37021	102.27456	42.28186	-363.80063	29.88295	39.34069	-437.02768	6.84262	31.54358	-501.49658	-2.71525	36.34028	
288	2.392	-373.87314	142.28076	1727.93616	-496.15497	141.93597	1662.53418	-276.95029	134.13847	1643.49133	-350.67279	333.09647	1419.56897	-238.20065	60.40883	1271.30542	-303.14899	435.36252	1098.65100	-434.72937	437.89105	870.11829	-388.22079	-73.53852	1420.08105	-343.33582	-184.22566	1106.32312	-420.06204	-205.47273	859.91876	-423.07489	278.39111	935.97809	-454.74210	-6.58661	945.08649	-218.40088	103.49004	942.31622	-503.37027	268.97079	567.73438	-424.92264	308.77432	457.64297	-263.26379	217.22734	291.36978	-91.42119	262.55304	235.12691	-47.72175	186.28165	270.39075	-131.10208	259.34290	91.50771	-521.18701	51.11264	634.65344	-459.70715	-6.19683	463.58746	-465.35953	75.54185	325.21545	-401.60068	14.58200	58.79710	-330.77704	66.49624	42.30407	-540.70959	32.15135	38.59902	-160.85454	253.91077	57.35278	-147.49127	226.28546	88.76205	-123.54321	181.19572	175.40813	-77.39101	164.49805	228.98994	-52.90462	233.47166	247.73569	-74.69273	272.70389	177.38499	-98.96737	289.58838	117.53605	-582.23059	62.11397	33.60677	-549.83710	72.37212	42.15141	-451.73859	108.94849	46.47066	-369.23877	102.13849	42.43141	-363.83505	29.83371	39.47903	-437.00092	6.79172	31.54641	-501.50507	-2.80201	36.33460	
289	2.400	-385.93185	142.11122	1729.91187	-508.26065	142.45538	1664.57263	-289.14725	133.97708	1645.17529	-361.88348	332.92429	1421.42847	-250.67662	59.75594	1273.86621	-312.43930	434.82379	1101.21045	-438.86179	438.41138	869.69531	-401.87604	-73.11454	1422.41809	-362.66736	-184.23802	1107.61816	-446.24146	-202.12201	863.70941	-435.73996	277.07852	939.31079	-466.03134	-7.72107	946.64001	-230.47240	104.32419	945.23950	-523.82910	269.05389	574.10944	-448.36044	308.55594	462.32370	-291.49533	217.56320	291.29483	-120.63606	262.20343	230.63786	-75.55029	185.43594	264.26459	-165.99350	257.67352	89.97340	-526.91827	50.18256	632.95630	-462.17365	-6.21820	463.31982	-466.09177	75.65847	325.11380	-401.50778	14.51883	58.78561	-331.83093	67.14320	42.63723	-540.78943	32.13614	38.52770	-197.54684	252.05965	56.94647	-183.10324	224.26076	87.86831	-156.17033	181.34360	173.46909	-106.51750	162.98366	224.80165	-81.76387	233.06262	241.65765	-105.42722	271.26086	172.32500	-133.70070	287.90204	114.31096	-582.19946	62.07885	33.62728	-549.79755	72.33492	42.10654	-451.74826	108.89524	46.52272	-369.35101	102.23225	42.58990	-363.80573	29.79129	39.75357	-437.01697	6.80818	31.52465	-501.49921	-2.84902	36.29090																																																	4102.00928	-1704.10840	1115.12512	
290	2.408	-398.33652	142.21011	1731.24658	-520.78143	142.41385	1666.22876	-301.68127	134.24455	1646.71460	-373.45789	332.79745	1422.93799	-262.79028	58.63669	1276.36475	-321.04715	434.40717	1103.40320	-442.90955	439.19894	868.95544	-415.70477	-72.79934	1424.70276	-381.19791	-184.23065	1108.65088	-472.94748	-198.77078	867.38904	-448.44876	275.93805	942.40057	-477.25436	-8.65878	947.80096	-242.60501	105.39700	947.58472	-544.16608	268.97180	580.40808	-471.22278	308.49524	467.02780	-319.17249	218.20522	291.24341	-150.16385	260.87888	225.39697	-102.81319	184.51520	257.23843	-204.93752	256.05563	88.62489	-533.36572	49.34686	631.37360	-465.11703	-6.23520	463.08762	-466.88092	76.22447	324.91919	-401.51346	14.61232	58.89275	-331.88345	67.31721	42.82740	-540.85931	32.10429	38.48154	-235.75609	250.01688	55.85992	-219.75345	222.78708	86.14633	-187.95221	179.07190	170.13530	-136.73360	162.55193	218.65395	-110.74918	231.96703	235.16653	-137.93381	270.09625	166.35364	-168.84526	286.37988	110.38589	-582.19287	61.99900	33.58888	-549.78510	72.29807	42.04389	-451.72888	108.93726	46.48572	-370.16669	102.83505	42.71840	-363.76758	29.89679	39.90699	-437.01767	6.82805	31.52441	-501.57431	-2.91300	36.23152																																																	4101.20166	-1709.30054	1121.31409	
